<svg width="40" height="40" viewBox="0 0 40 40" fill="none" xmlns="http://www.w3.org/2000/svg">
<g id="calendar-todo-fill">
<path id="Vector" d="M28.2001 4.93334H34.8667C35.7872 4.93334 36.5334 5.67954 36.5334 6.60001V33.2667C36.5334 34.1872 35.7872 34.9333 34.8667 34.9333H4.86674C3.94627 34.9333 3.20007 34.1872 3.20007 33.2667V6.60001C3.20007 5.67954 3.94627 4.93334 4.86674 4.93334H11.5334V1.60001H14.8667V4.93334H24.8667V1.60001H28.2001V4.93334ZM6.53341 14.9333V31.6H33.2001V14.9333H6.53341ZM9.86674 18.2667H13.2001V21.6H9.86674V18.2667ZM9.86674 24.9333H13.2001V28.2667H9.86674V24.9333ZM16.5334 18.2667H29.8667V21.6H16.5334V18.2667ZM16.5334 24.9333H24.8667V28.2667H16.5334V24.9333Z" fill="#911F27"/>
</g>
</svg>
