<svg width="146" height="32" viewBox="0 0 146 32" fill="none" xmlns="http://www.w3.org/2000/svg">
<rect x="9.82285" y="0.994171" width="25.3235" height="21.7509" rx="5" transform="rotate(26.8468 9.82285 0.994171)" fill="#630A10"/>
<rect x="12.4059" width="25.3235" height="21.7509" rx="5" transform="rotate(26.8468 12.4059 0)" fill="#911F27"/>
<ellipse cx="18.7209" cy="15.0352" rx="3.4593" ry="3.35756" fill="white"/>
<ellipse cx="18.8227" cy="15.0352" rx="1.72965" ry="1.52616" fill="#CDCDCD"/>
<path d="M49.208 26.256H46.592V24H40.952V26.256H38.384V21.648H39.416C39.872 21.072 40.016 20.448 40.064 19.464L40.664 7.2H48.056V21.648H49.208V26.256ZM43.136 9.6L42.656 19.416C42.584 20.688 42.344 21.24 41.912 21.648H45.368V9.6H43.136ZM52.7187 9.6V14.28H56.3428V16.68H52.7187V21.6H57.2787V24H50.0787V7.2H57.2787V9.6H52.7187ZM57.5707 24.024V21.624C58.7707 21.624 59.1547 21.456 59.2027 19.896L59.6347 7.2H67.0987V24H64.4107V9.6H62.1067L61.8187 19.752C61.7227 22.824 60.6187 24.024 57.9787 24.024H57.5707ZM70.9434 11.064V20.136C70.9434 21.336 71.4714 21.792 72.3114 21.792C73.1514 21.792 73.6794 21.336 73.6794 20.136V11.064C73.6794 9.864 73.1514 9.408 72.3114 9.408C71.4714 9.408 70.9434 9.864 70.9434 11.064ZM68.3034 19.968V11.232C68.3034 8.544 69.7194 7.008 72.3114 7.008C74.9034 7.008 76.3194 8.544 76.3194 11.232V19.968C76.3194 22.656 74.9034 24.192 72.3114 24.192C69.7194 24.192 68.3034 22.656 68.3034 19.968ZM81.419 7.2C84.155 7.2 85.331 8.472 85.331 11.064V11.664C85.331 13.392 84.803 14.496 83.627 15.048C85.043 15.6 85.595 16.872 85.595 18.648V20.016C85.595 22.608 84.227 24 81.587 24H77.435V7.2H81.419ZM81.251 16.44H80.075V21.6H81.587C82.475 21.6 82.955 21.192 82.955 19.944V18.48C82.955 16.92 82.451 16.44 81.251 16.44ZM81.347 9.6H80.075V14.04H81.107C82.091 14.04 82.691 13.608 82.691 12.264V11.328C82.691 10.128 82.283 9.6 81.347 9.6ZM89.009 11.064V20.136C89.009 21.336 89.537 21.792 90.377 21.792C91.217 21.792 91.745 21.336 91.745 20.136V11.064C91.745 9.864 91.217 9.408 90.377 9.408C89.537 9.408 89.009 9.864 89.009 11.064ZM86.369 19.968V11.232C86.369 8.544 87.785 7.008 90.377 7.008C92.969 7.008 94.385 8.544 94.385 11.232V19.968C94.385 22.656 92.969 24.192 90.377 24.192C87.785 24.192 86.369 22.656 86.369 19.968ZM98.2126 24H95.5006V7.2H97.8526V17.832L98.8126 14.136L100.973 7.2H103.877V24H101.501V12.168L100.421 16.296L98.2126 24ZM100.925 3.456C100.853 4.344 100.445 4.56 99.7246 4.56C99.0286 4.56 98.6686 4.344 98.5966 3.456H96.9646C97.0126 5.088 97.8766 6.12 99.7246 6.12C101.597 6.12 102.533 5.088 102.533 3.456H100.925ZM110.74 11.064V20.136C110.74 21.336 111.268 21.792 112.108 21.792C112.948 21.792 113.476 21.336 113.476 20.136V11.064C113.476 9.864 112.948 9.408 112.108 9.408C111.268 9.408 110.74 9.864 110.74 11.064ZM108.1 19.968V11.232C108.1 8.544 109.516 7.008 112.108 7.008C114.7 7.008 116.116 8.544 116.116 11.232V19.968C116.116 22.656 114.7 24.192 112.108 24.192C109.516 24.192 108.1 22.656 108.1 19.968ZM121.432 24H117.256V7.2H124.648V9.6H119.896V13.896H121.432C124.072 13.896 125.416 15.36 125.416 18.048V19.848C125.416 22.536 124.072 24 121.432 24ZM119.896 21.6H121.432C122.272 21.6 122.776 21.216 122.776 20.016V17.88C122.776 16.68 122.272 16.296 121.432 16.296H119.896V21.6ZM129.233 9.6V14.28H132.857V16.68H129.233V21.6H133.793V24H126.593V7.2H133.793V9.6H129.233ZM145.077 26.256H142.461V24H136.821V26.256H134.253V21.648H135.285C135.741 21.072 135.885 20.448 135.933 19.464L136.533 7.2H143.925V21.648H145.077V26.256ZM139.005 9.6L138.525 19.416C138.453 20.688 138.213 21.24 137.781 21.648H141.237V9.6H139.005Z" fill="#911F27"/>
</svg>
