<svg width="40" height="40" viewBox="0 0 40 40" fill="none" xmlns="http://www.w3.org/2000/svg">
<g id="user-2-line">
<path id="Vector" d="M6.66663 36.6667C6.66663 29.3029 12.6362 23.3334 20 23.3334C27.3638 23.3334 33.3333 29.3029 33.3333 36.6667H6.66663ZM21.6666 26.805V33.3334H29.431C28.2371 29.9559 25.2806 27.4112 21.6666 26.805ZM18.3333 33.3334V26.805C14.7194 27.4112 11.7627 29.9559 10.569 33.3334H18.3333ZM20 21.6667C14.475 21.6667 9.99996 17.1917 9.99996 11.6667C9.99996 6.14169 14.475 1.66669 20 1.66669C25.525 1.66669 30 6.14169 30 11.6667C30 17.1917 25.525 21.6667 20 21.6667ZM20 18.3334C23.684 18.3334 26.6666 15.3507 26.6666 11.6667C26.6666 7.98264 23.684 5.00002 20 5.00002C16.3159 5.00002 13.3333 7.98264 13.3333 11.6667C13.3333 15.3507 16.3159 18.3334 20 18.3334Z" fill="#911F27"/>
</g>
</svg>
